<svg xmlns="http://www.w3.org/2000/svg" width="500" height="500" viewBox="0 0 500 500">
  <defs>
    <linearGradient id="fur" x1="0" y1="0" x2="1" y2="1"><stop offset="0" stop-color="#f59b42"/><stop offset="1" stop-color="#c95d2d"/></linearGradient>
    <linearGradient id="tailFur" x1="0" y1="0" x2="1" y2="1"><stop offset="0" stop-color="#ffb85f"/><stop offset="1" stop-color="#d56731"/></linearGradient>
  </defs>
  <g id="tail"><path d="M362 356c91-8 113-87 68-132-33-33-88-10-70 30 11 25 44 12 43-9 28 41-10 73-55 75z" fill="url(#tailFur)" stroke="#8f3f28" stroke-width="8" stroke-linejoin="round"/><path d="M383 333c48-18 70-57 47-89" fill="none" stroke="#ffd08b" stroke-width="14" stroke-linecap="round" opacity=".72"/></g>
  <g id="body"><ellipse cx="253" cy="355" rx="98" ry="111" fill="url(#fur)" stroke="#8f3f28" stroke-width="8"/><ellipse cx="253" cy="373" rx="57" ry="76" fill="#ffe3b5"/></g>
  <g id="legs"><path d="M207 421c-8 17-12 35-10 53h45l5-55z" fill="#c95d2d" stroke="#8f3f28" stroke-width="7"/><ellipse cx="216" cy="474" rx="31" ry="13" fill="#593628"/><path d="M273 419l5 55h45c2-18-2-36-10-53z" fill="#c95d2d" stroke="#8f3f28" stroke-width="7"/><ellipse cx="304" cy="474" rx="31" ry="13" fill="#593628"/></g>
  <g id="vest"><path d="M188 301c19-22 43-31 65-31s48 9 66 31l-12 113c-34 18-75 18-109 0z" fill="#173b63" stroke="#102b49" stroke-width="7"/><path d="M253 281v137" stroke="#f6d76e" stroke-width="5"/><circle cx="253" cy="326" r="5" fill="#f6d76e"/><circle cx="253" cy="354" r="5" fill="#f6d76e"/><circle cx="253" cy="382" r="5" fill="#f6d76e"/></g>
  <g id="head"><circle cx="184" cy="155" r="39" fill="url(#fur)" stroke="#8f3f28" stroke-width="8"/><circle cx="184" cy="155" r="21" fill="#ffc083"/><circle cx="322" cy="155" r="39" fill="url(#fur)" stroke="#8f3f28" stroke-width="8"/><circle cx="322" cy="155" r="21" fill="#ffc083"/><ellipse cx="253" cy="198" rx="94" ry="92" fill="url(#fur)" stroke="#8f3f28" stroke-width="8"/><ellipse cx="253" cy="228" rx="59" ry="47" fill="#ffe3b5"/></g>
  <g id="glasses" fill="none" stroke="#173b63" stroke-width="10"><rect x="187" y="164" width="62" height="54" rx="22"/><rect x="257" y="164" width="62" height="54" rx="22"/><path d="M249 184h8"/><path d="M187 181l-22-7M319 181l22-7"/></g>
  <g id="mouth"><path d="M244 220l9 8 9-8" fill="#553126" stroke="#553126" stroke-width="5" stroke-linecap="round" stroke-linejoin="round"/><path d="M228 241c15 18 35 18 50 0" fill="none" stroke="#7d3028" stroke-width="6" stroke-linecap="round"/></g>
  <g id="bow_tie"><path d="M253 274l-29-18v35zM253 274l29-18v35z" fill="#202b38"/><circle cx="253" cy="274" r="10" fill="#f6d76e"/></g>
</svg>
